# xmcd
#
# Track frame offsets:
#	150
#	12464
#	26419
#	39207
#	54922
#	66751
#	76816
#	91490
#	107724
#	122677
#	136610
#	151223
#	175560
#	192367
#	205498
#	220015
#	233015
#	246111
#	263267
#	275875
#	290549
#	305342
#	323466
#	333512
#
# Disc length: 4638 seconds
#
# Revision: 1
# Processed by: cddbd v1.5.2PL0 Copyright (c) Steve Scherf et al.
# Submitted via: audiograbber 1.83.01
#
DISCID=3c121c18
DTITLE=Western Heart - Western Heart 081
DYEAR=2007
DGENRE=Country
TTITLE0=Winding Wanabago  - Hal Willis and Ginger Willis
TTITLE1=Not What I Had In Mind  - Judy Kanyo
TTITLE2=Rock Baby Blues  - Dick Damron
TTITLE3=It압 The Way That You Do It  - Cheryl K Warner
TTITLE4=Tommy Can앖 Take It  - Richard Draime
TTITLE5=How Much Is That Doggie In The Window  - Joni Campretta
TTITLE6=Bad Choices  - Dough Jones
TTITLE7=Mirror, Mirror - Erin Hay 
TTITLE8=Who압 Sorry Now  - Jim Marlboro
TTITLE9=Alaska  - Ervin Allen
TTITLE10=Alimony  - Dylan Drake
TTITLE11=End Of The Circle  - Eddie Drayton
TTITLE12=Listen - Randofph Michaud
TTITLE13=Invisible Man  - Jose Daniel
TTITLE14=My Corner Of The Universe  - Jamie Cutler Harper
TTITLE15=Can앖 Wait To See You  - Michael B Rowe 
TTITLE16=Red Side Of Town  - The Matekies
TTITLE17=Homesick - Vance Greek
TTITLE18=I Can Hear The Angels Singing  - Jim Russ
TTITLE19=Confusion (what압 The Sulution)  - Judy Weldon
TTITLE20=Till I Gain Control Again - Rudy Grant
TTITLE21=Honkytonks To Heaven  - Dave Pendergraft
TTITLE22=It압 Never To Late - Sharon Leighton Joyner
TTITLE23=Wayfaring Stranger  - Thornbirds
EXTD=
EXTT0=
EXTT1=
EXTT2=
EXTT3=
EXTT4=
EXTT5=
EXTT6=
EXTT7=
EXTT8=
EXTT9=
EXTT10=
EXTT11=
EXTT12=
EXTT13=
EXTT14=
EXTT15=
EXTT16=
EXTT17=
EXTT18=
EXTT19=
EXTT20=
EXTT21=
EXTT22=
EXTT23=
PLAYORDER=
